<?xml version="1.0" standalone="no"?><!DOCTYPE svg PUBLIC "-//W3C//DTD SVG 1.1//EN" "http://www.w3.org/Graphics/SVG/1.1/DTD/svg11.dtd"><svg t="1608458604858" class="icon" viewBox="0 0 1024 1024" version="1.1" xmlns="http://www.w3.org/2000/svg" p-id="4070" xmlns:xlink="http://www.w3.org/1999/xlink" width="200" height="200"><defs><style type="text/css"></style></defs><path d="M837.2 463.72v373.41c0 23.34-28.04 46.67-60.75 46.67H650.28V697.05c0-79.35-60.75-140.02-140.19-140.02S369.9 617.71 369.9 697.05V883.8H243.74c-32.71 0-60.75-23.34-60.75-46.67V463.72c0-4.67 0-9.33-4.67-14L510.09 151l331.77 298.71c-4.66 4.68-4.66 9.34-4.66 14.01zM463.36 883.8V697.05c0-28.01 18.69-46.67 46.73-46.67 28.04 0 46.73 18.66 46.73 46.67V883.8h-93.46z m546.72-406.08L542.8 57.65c-18.69-14-46.73-14-60.75 0L14.76 477.72c-18.69 18.67-18.69 46.68-4.67 65.35 18.69 18.66 46.73 18.66 65.42 4.66l14.02-18.66v308.05c0 79.35 70.09 140.03 154.2 140.03h532.71c84.11 0 154.2-60.68 154.2-140.03V529.07l14.02 14c9.34 9.33 18.69 14 32.72 14 14.02 0 23.36-4.67 32.7-14 18.69-18.67 18.69-51.35 0-65.35z" p-id="4071"></path></svg>