<?xml version="1.0" standalone="no"?><!DOCTYPE svg PUBLIC "-//W3C//DTD SVG 1.1//EN" "http://www.w3.org/Graphics/SVG/1.1/DTD/svg11.dtd"><svg t="1608458870113" class="icon" viewBox="0 0 1024 1024" version="1.1" xmlns="http://www.w3.org/2000/svg" p-id="6690" xmlns:xlink="http://www.w3.org/1999/xlink" width="200" height="200"><defs><style type="text/css"></style></defs><path d="M601.83552 562.87744a258.98496 258.98496 0 1 0-184.79104 0c-171.70432 39.936-305.28 188.24192-319.65696 370.2528a27.25376 27.25376 0 1 0 54.33344 4.3008 358.82496 358.82496 0 0 1 715.43808 0 27.26912 27.26912 0 0 0 27.136 25.12896c0.72192 0 1.44896 0 2.18112-0.08704a27.26912 27.26912 0 0 0 25.01632-29.34272c-14.37696-182.02624-147.95776-330.33728-319.65696-370.2528zM304.95744 320.7168A204.48256 204.48256 0 1 1 509.44 525.43488 204.83072 204.83072 0 0 1 304.95744 320.7168z" fill="#BC1515" p-id="6691"></path></svg>