<?xml version="1.0" standalone="no"?><!DOCTYPE svg PUBLIC "-//W3C//DTD SVG 1.1//EN" "http://www.w3.org/Graphics/SVG/1.1/DTD/svg11.dtd"><svg t="1608458847794" class="icon" viewBox="0 0 1024 1024" version="1.1" xmlns="http://www.w3.org/2000/svg" p-id="5145" xmlns:xlink="http://www.w3.org/1999/xlink" width="200" height="200"><defs><style type="text/css"></style></defs><path d="M420.864 361.472h77.824v76.8h-77.824zM420.864 555.008h77.824v76.8h-77.824zM605.184 555.008h77.824v76.8h-77.824zM620.18048 365.677568l55.02976 55.02976-54.305792 54.304768-55.02976-55.02976z" fill="#F7C8D8" p-id="5146"></path><path d="M526.336 776.192c-83.6608 0-162.4064-32.5632-221.5936-91.7504S212.992 546.5088 212.992 462.848c0-83.3536 32.3584-161.792 91.136-220.8768 5.9392-6.0416 15.6672-6.0416 21.7088-0.1024 6.0416 5.9392 6.0416 15.6672 0.1024 21.7088C272.896 316.928 243.712 387.6864 243.712 462.848c0 155.8528 126.7712 282.624 282.624 282.624 53.0432 0 104.7552-14.7456 149.504-42.7008 7.168-4.5056 16.6912-2.2528 21.1968 4.9152 4.5056 7.168 2.2528 16.6912-4.9152 21.1968C642.4576 759.808 585.1136 776.192 526.336 776.192zM732.9792 692.9408c-3.9936 0-8.0896-1.536-11.0592-4.7104-5.8368-6.144-5.7344-15.872 0.4096-21.7088C778.1376 612.7616 808.96 540.3648 808.96 462.848c0-155.8528-126.7712-282.624-282.624-282.624-25.088 0-49.8688 3.2768-73.8304 9.728-8.192 2.2528-16.5888-2.6624-18.8416-10.8544-2.2528-8.192 2.6624-16.5888 10.8544-18.8416 26.5216-7.168 54.0672-10.752 81.8176-10.752 83.6608 0 162.4064 32.5632 221.5936 91.7504C807.1168 300.4416 839.68 379.1872 839.68 462.848c0 43.3152-8.704 85.2992-25.8048 124.8256-16.5888 38.0928-40.2432 72.0896-70.2464 100.9664-3.072 2.8672-6.8608 4.3008-10.6496 4.3008zM356.352 233.472c-4.8128 0-9.6256-2.2528-12.5952-6.5536-4.8128-6.9632-3.1744-16.4864 3.7888-21.4016 18.432-12.8 38.2976-23.6544 59.0848-32.256 7.8848-3.2768 16.7936 0.512 20.0704 8.2944 3.2768 7.8848-0.512 16.7936-8.2944 20.0704-18.6368 7.68-36.5568 17.5104-53.248 29.0816-2.6624 1.8432-5.7344 2.7648-8.8064 2.7648z" fill="#EA5D93" p-id="5147"></path><path d="M498.4832 448.512H376.0128c-5.632 0-10.24-4.608-10.24-10.24v-61.2352c0-5.632 4.608-10.24 10.24-10.24s10.24 4.608 10.24 10.24V428.032h101.9904v-101.9904h-101.9904v9.9328c0 5.632-4.608 10.24-10.24 10.24s-10.24-4.608-10.24-10.24v-20.1728c0-5.632 4.608-10.24 10.24-10.24h122.4704c5.632 0 10.24 4.608 10.24 10.24V438.272c0 5.632-4.608 10.24-10.24 10.24zM498.4832 641.6384H376.0128c-5.632 0-10.24-4.608-10.24-10.24v-61.2352c0-5.632 4.608-10.24 10.24-10.24s10.24 4.608 10.24 10.24v50.9952h101.9904V519.168h-101.9904v16.384c0 5.632-4.608 10.24-10.24 10.24s-10.24-4.608-10.24-10.24v-26.624c0-5.632 4.608-10.24 10.24-10.24h122.4704c5.632 0 10.24 4.608 10.24 10.24v122.4704c0 5.632-4.608 10.24-10.24 10.24zM682.1888 641.6384H559.7184c-5.632 0-10.24-4.608-10.24-10.24v-61.2352c0-5.632 4.608-10.24 10.24-10.24s10.24 4.608 10.24 10.24v50.9952h101.9904V519.168h-101.9904v16.384c0 5.632-4.608 10.24-10.24 10.24s-10.24-4.608-10.24-10.24v-26.624c0-5.632 4.608-10.24 10.24-10.24h122.4704c5.632 0 10.24 4.608 10.24 10.24v122.4704c0 5.632-4.608 10.24-10.24 10.24zM620.9536 476.16c-2.6624 0-5.2224-1.024-7.2704-2.9696l-86.6304-86.6304c-3.9936-3.9936-3.9936-10.4448 0-14.4384l86.6304-86.6304c3.9936-3.9936 10.4448-3.9936 14.4384 0l86.6304 86.6304c3.9936 3.9936 3.9936 10.4448 0 14.4384l-49.8688 49.8688c-3.9936 3.9936-10.4448 3.9936-14.4384 0-3.9936-3.9936-3.9936-10.4448 0-14.4384l42.5984-42.5984-72.0896-72.192-72.0896 72.0896 72.0896 72.0896 7.68-7.68c3.9936-3.9936 10.4448-3.9936 14.4384 0 3.9936 3.9936 3.9936 10.4448 0 14.4384L628.1216 473.088c-1.9456 2.1504-4.5056 3.072-7.168 3.072z" fill="#EA5D93" p-id="5148"></path></svg>